<svg width="32" height="32" viewBox="0 0 32 32" fill="none" xmlns="http://www.w3.org/2000/svg" class=""><path fill-rule="evenodd" clip-rule="evenodd" d="M5.63 4h20.74c1.637 0 2.963 1.343 2.963 3v18c0 1.657-1.326 3-2.963 3H5.63c-1.637 0-2.963-1.343-2.963-3V7c0-1.657 1.326-3 2.963-3zm0 6v15h20.74V10H5.63zm2.963-3v1.5H5.63V7h2.963zm4.444 0v1.5h-2.963V7h2.963zm-1.078 6.293l1.415 1.414-2.627 2.626 2.627 2.627-1.415 1.414-4.04-4.04 4.04-4.041zm9.293 4.04l-2.626-2.626 1.414-1.414 4.04 4.04-4.04 4.04-1.414-1.413 2.626-2.627zm-4.88-4.941l-2.667 9.333 1.923.55 2.667-9.334-1.923-.55z" fill="currentColor"></path></svg>